<svg width="21" height="21" viewBox="0 0 21 21" fill="none" xmlns="http://www.w3.org/2000/svg">
<path d="M3.74495 3.43801C3.5252 3.42954 3.29583 3.37749 3.07052 3.28498C2.8452 3.19247 2.62857 3.06139 2.43353 2.89956C2.2385 2.73773 2.06906 2.54847 1.93533 2.34307C1.80159 2.13766 1.7063 1.92032 1.65514 1.70401C1.60397 1.4877 1.59799 1.27686 1.63753 1.08405C1.67708 0.891247 1.76135 0.720434 1.88532 0.5818C2.00928 0.443165 2.17041 0.339552 2.35907 0.277141C2.54774 0.21473 2.76009 0.1948 2.98345 0.218539L15.4348 1.12386C15.8723 1.15593 16.3319 1.35612 16.7126 1.68043C17.0934 2.00475 17.3641 2.42669 17.4653 2.85355L20.3389 15.0025C20.3978 15.2193 20.4119 15.4321 20.3803 15.6283C20.3487 15.8245 20.272 16 20.1549 16.1444C20.0377 16.2889 19.8825 16.3992 19.6984 16.4689C19.5143 16.5386 19.3052 16.5662 19.0835 16.5501C18.8618 16.534 18.6321 16.4745 18.408 16.3751C18.184 16.2757 17.9702 16.1385 17.7794 15.9717C17.5886 15.8049 17.4248 15.6119 17.2976 15.4041C17.1705 15.1964 17.0826 14.9782 17.0393 14.7626L15.0853 6.50131L3.48424 20.1202C3.24609 20.3997 2.86634 20.5389 2.42851 20.5071C1.99069 20.4752 1.53065 20.275 1.14961 19.9504C0.768576 19.6258 0.497744 19.2035 0.3967 18.7763C0.295655 18.3491 0.372676 17.9521 0.610818 17.6725L12.2118 4.05363L3.74495 3.43801Z" fill="white"/>
</svg>
