<?xml version="1.0" encoding="UTF-8" standalone="no"?>
<!-- Created with Inkscape (http://www.inkscape.org/) -->

<svg
 
   viewBox="0 0 571.8919 104.93859"
   version="1.1"
   id="svg1"
   inkscape:export-filename="bitmap.svg"
   inkscape:export-xdpi="96"
   inkscape:export-ydpi="96"
   inkscape:version="1.4.2 (ebf0e940, 2025-05-08)"
   sodipodi:docname="logo-one.svg"
   xmlns:inkscape="http://www.inkscape.org/namespaces/inkscape"
   xmlns:sodipodi="http://sodipodi.sourceforge.net/DTD/sodipodi-0.dtd"
   xmlns="http://www.w3.org/2000/svg"
   xmlns:svg="http://www.w3.org/2000/svg">
  <defs
     id="defs1">
    <rect
       x="208.92172"
       y="167.49759"
       width="698.80713"
       height="174.7018"
       id="rect1" />
  </defs>
  <g
     inkscape:label="Layer 1"
     inkscape:groupmode="layer"
     id="layer1"
     transform="translate(-272.87234,-295.55008)">
    <path
       style="font-size:85.3333px;line-height:1;font-family:Questrial;-inkscape-font-specification:'Questrial, Normal';text-align:center;letter-spacing:10.84px;text-anchor:middle;white-space:pre;fill:#ffffff"
       d="m 272.8724,375.50373 v -56.49064 h 23.80799 q 5.03467,0 9.64266,1.96267 4.69334,1.87733 8.36267,5.54666 3.66933,3.66933 5.80266,8.87466 2.13333,5.20533 2.13333,11.86133 0,6.656 -2.13333,11.86133 -2.13333,5.20533 -5.80266,8.87466 -3.66933,3.66934 -8.36267,5.632 -4.60799,1.87733 -9.64266,1.87733 z m 6.4,-6.05866 h 17.15199 q 6.05867,0 10.496,-3.072 4.43733,-3.072 6.82666,-8.10666 2.47467,-5.03467 2.47467,-11.008 0,-6.05866 -2.47467,-11.09333 -2.38933,-5.03466 -6.82666,-8.02133 -4.43733,-3.072 -10.496,-3.072 H 279.2724 Z m 64.42923,6.05866 v -56.49064 h 27.05066 q 8.70399,0 13.82399,4.77867 5.20533,4.77866 5.20533,12.88532 0,5.46133 -2.13333,8.704 -2.048,3.24266 -5.20533,4.94933 -3.15733,1.62133 -6.31466,2.38933 l 14.84799,22.78399 h -7.59466 l -13.65333,-21.67465 h -19.62666 v 21.67465 z m 6.4,-27.73332 h 19.54133 q 3.07199,0 6.22933,-0.93866 3.15733,-0.93867 5.29066,-3.328 2.21867,-2.47467 2.21867,-6.82667 0,-5.37599 -3.66934,-8.44799 -3.66933,-3.15734 -9.72799,-3.15734 h -19.88266 z m 61.52803,27.73332 v -56.49064 h 6.4 v 56.49064 z m 31.06395,0 v -56.49064 h 7.424 l 34.90132,47.53065 v -47.53065 h 6.4 v 56.49064 h -7.424 l -34.90132,-47.70131 v 47.70131 z m 73.38929,0 v -56.49064 h 6.39999 v 29.43999 l 31.40266,-29.43999 h 9.04533 l -24.06399,22.69866 25.42932,33.79198 h -8.02133 l -22.10132,-29.43998 -11.69067,10.92266 v 18.51732 z m 94.55464,0 v -56.49064 h 40.78931 v 6.144 h -34.38931 v 19.62666 h 30.63465 v 6.22933 h -30.63465 v 24.49065 z m 60.58932,0 v -56.49064 h 27.05066 q 8.70399,0 13.82399,4.77867 5.20533,4.77866 5.20533,12.88532 0,5.46133 -2.13333,8.704 -2.048,3.24266 -5.20533,4.94933 -3.15733,1.62133 -6.31466,2.38933 l 14.84799,22.78399 h -7.59466 l -13.65333,-21.67465 h -19.62666 v 21.67465 z m 6.4,-27.73332 h 19.54133 q 3.07199,0 6.22933,-0.93866 3.15733,-0.93867 5.29066,-3.328 2.21867,-2.47467 2.21867,-6.82667 0,-5.37599 -3.66934,-8.44799 -3.66933,-3.15734 -9.72799,-3.15734 h -19.88266 z m 61.52804,27.73332 v -56.49064 h 41.55732 v 6.144 H 745.5549 v 18.94399 h 31.40265 v 6.22933 H 745.5549 v 19.02933 h 35.15732 v 6.14399 z m 62.72263,0 v -56.49064 h 41.55731 v 6.144 h -35.15731 v 18.94399 h 31.40265 v 6.22933 h -31.40265 v 19.02933 h 35.15731 v 6.14399 z"
       id="text1"
       aria-label="DRINK FREE" />
    <path
       id="rect3"
       style="stroke-width:0.790666;fill:#ffffff"
       d="m 272.87492,395.48218 h 571.88935 v 5.00648 H 272.87492 Z" />
    <path
       id="rect4"
       style="stroke-width:0.790374;fill:#ffffff"
       d="m 273.27251,295.55008 h 571.4671 v 5.00649 h -571.4671 z" />
  </g>
</svg>
