<svg viewBox="0 0 15 16" fill="none" xmlns="http://www.w3.org/2000/svg">
<g clip-path="url(#clip0_19_87)">
<path d="M3.09645 1.94355C4.73407 3.17718 6.49579 5.67813 7.1424 7.02023V10.5651C7.1424 10.4897 7.11338 10.5749 7.05089 10.7586C6.71341 11.7532 5.39519 15.6349 2.38087 12.5317C0.793699 10.8979 1.52847 9.26406 4.41757 8.77079C2.76478 9.05292 0.906638 8.58665 0.39685 6.75864C0.249984 6.23279 0 2.99371 0 2.55623C0 0.364857 1.91483 1.05365 3.09645 1.94355ZM11.1883 1.94355C9.55073 3.17718 7.78901 5.67813 7.1424 7.02023V10.5651C7.1424 10.4897 7.17142 10.5749 7.23391 10.7586C7.57139 11.7532 8.88961 15.6349 11.9039 12.5317C13.4911 10.8979 12.7563 9.26406 9.86723 8.77079C11.52 9.05292 13.3782 8.58665 13.8879 6.75864C14.0348 6.23279 14.2848 2.99371 14.2848 2.55623C14.2848 0.364857 12.3702 1.05365 11.1883 1.94355Z" fill="white"/>
</g>
<defs>
<clipPath id="clip0_19_87">
<rect width="14.2848" height="16" fill="white"/>
</clipPath>
</defs>
</svg>
